<?xml version="1.0" encoding="UTF-8"?>
<svg version="1.1" xmlns="http://www.w3.org/2000/svg" width="1254" height="1254">
<path d="M0 0 C413.82 0 827.64 0 1254 0 C1254 413.82 1254 827.64 1254 1254 C840.18 1254 426.36 1254 0 1254 C0 840.18 0 426.36 0 0 Z " fill="#F8EDDD" transform="translate(0,0)"/>
<path d="M0 0 C0.80904785 0.39461426 1.6180957 0.78922852 2.45166016 1.19580078 C3.80130859 1.84742188 3.80130859 1.84742188 5.17822266 2.51220703 C6.10634766 2.96724609 7.03447266 3.42228516 7.99072266 3.89111328 C9.83125665 4.78560249 11.67239072 5.67885815 13.51416016 6.57080078 C14.39040039 6.99522461 15.26664063 7.41964844 16.16943359 7.85693359 C18.253339 8.84439695 20.34374434 9.78224109 22.46728516 10.68017578 C25.25043856 11.8611168 27.92728193 13.1365187 30.61572266 14.51611328 C34.55781724 16.51097988 38.55021407 18.28450777 42.61572266 20.01611328 C44.56432397 20.97488723 46.4992963 21.95589275 48.42822266 22.95361328 C50.15401684 23.79185617 51.91150602 24.56483787 53.67822266 25.31298828 C58.73711375 27.4603261 63.66591113 29.88081899 68.61572266 32.26611328 C75.43764473 35.54063588 82.25985437 38.81313732 89.11572266 42.01611328 C90.21916016 42.53173828 91.32259766 43.04736328 92.45947266 43.57861328 C94.56444971 44.5373157 96.68243333 45.46795605 98.81225586 46.37011719 C102.80008809 48.0751817 106.71363672 49.92196265 110.62744141 51.78955078 C112.19034245 52.53232027 113.7532496 53.2750769 115.31616211 54.01782227 C116.12880524 54.40461151 116.94144836 54.79140076 117.77871704 55.18991089 C134.67908175 63.23138974 151.62574582 71.1656429 168.61572266 79.01611328 C175.28328025 82.09752199 181.95005684 85.18061427 188.61572266 88.26611328 C189.48486298 88.6684317 190.3540033 89.07075012 191.2494812 89.48526001 C207.48732 97.00478852 223.67976501 104.61801153 239.84877014 112.28430176 C243.90981757 114.20956294 247.97405703 116.12783123 252.04150391 118.03955078 C253.40879639 118.6831958 253.40879639 118.6831958 254.80371094 119.33984375 C256.40421124 120.09303875 258.00538674 120.84480166 259.60742188 121.59472656 C264.50315082 123.90354145 264.50315082 123.90354145 265.61572266 125.01611328 C265.71454733 127.5129006 265.74750126 129.98202735 265.73877048 132.47932529 C265.73992433 133.27401477 265.74107817 134.06870425 265.74226698 134.88747522 C265.74494101 137.58479898 265.74040507 140.28206457 265.73597717 142.97938538 C265.73641271 144.91890475 265.73728731 146.85842406 265.73856634 148.79794306 C265.74081465 154.15443083 265.73678545 159.51089882 265.73178828 164.86738408 C265.72748876 170.63360987 265.72892984 176.39983446 265.72969055 182.1660614 C265.73021611 192.16535267 265.72706604 202.16463744 265.72145271 212.16392708 C265.71334194 226.62140369 265.71072293 241.07887714 265.70946472 255.53635579 C265.70727354 278.98997791 265.70062021 302.44359656 265.69116211 325.8972168 C265.68198246 348.68660463 265.6748965 371.47599154 265.6706543 394.26538086 C265.67045701 395.31849299 265.67045701 395.31849299 265.67025573 396.39288011 C265.66893725 403.44319845 265.66766143 410.49351679 265.66641687 417.54383514 C265.66388044 431.90702601 265.66105919 446.27021681 265.6580658 460.63340759 C265.65779107 461.95265383 265.65751634 463.27190008 265.65723329 464.63112348 C265.64805761 508.09278811 265.63232345 551.55445093 265.61572266 595.01611328 C253.93201724 595.31925996 242.24926854 595.54927183 230.56241035 595.68967152 C225.13360411 595.75710938 219.70751562 595.848339 214.28027344 595.99682617 C209.02800307 596.13960292 203.77832084 596.21611503 198.52425766 596.24951744 C196.53472057 596.27327249 194.54530216 596.31965638 192.55688858 596.39060402 C177.51966479 596.90508519 169.0355136 593.51680583 157.64779282 583.70955467 C154.25430597 580.88156615 150.62137578 578.4018998 146.99072266 575.89111328 C145.054632 574.52929895 143.12852603 573.15913536 141.2176733 571.76206428 C139.08362324 570.33008215 136.98401888 569.11558568 134.72941685 567.89630431 C122.81433197 561.13097423 122.81433197 561.13097423 121.13918877 555.26552165 C120.40290387 550.80649616 120.55585658 546.36359934 120.69165039 541.86238098 C120.68466409 540.1328046 120.67063785 538.40324491 120.65022373 536.6737749 C120.61457764 531.94197868 120.67822264 527.21601731 120.75867271 522.48496473 C120.82795869 517.37605268 120.80437335 512.26745301 120.79223633 507.15820312 C120.78385806 498.31347346 120.83392982 489.47063639 120.92404175 480.62638283 C121.05423894 467.83952118 121.09576071 455.05357196 121.11584961 442.26611932 C121.15084278 421.51844717 121.2572518 400.77178316 121.40869141 380.0246582 C121.55562169 359.87431797 121.66865986 339.72425325 121.73681641 319.57348633 C121.74110436 318.31813554 121.74539232 317.06278475 121.74981022 315.76939303 C121.78308221 305.95129794 121.81439257 296.13319685 121.84508324 286.3150934 C121.99594417 238.21450793 122.31784935 190.116447 122.61572266 142.01611328 C38.13572266 142.01611328 -46.34427734 142.01611328 -133.38427734 142.01611328 C-133.19285156 183.58257812 -133.19285156 183.58257812 -132.99755859 225.98876953 C-132.9413803 243.50244891 -132.88790741 261.01607315 -132.84716797 278.52978516 C-132.82563082 287.72697158 -132.80340536 296.92415595 -132.7800293 306.12133789 C-132.77712806 307.27408162 -132.77422682 308.42682535 -132.77123767 309.6145007 C-132.72337311 328.23357386 -132.63663948 346.85227396 -132.53559659 365.47112579 C-132.43279031 384.57399596 -132.3716437 403.67667061 -132.3493039 422.77980608 C-132.33419762 434.57114438 -132.28646014 446.36142881 -132.19719621 458.15244275 C-132.13912461 466.23407043 -132.12145901 474.315152 -132.13576219 482.39697326 C-132.1428202 487.06275256 -132.13187921 491.72668852 -132.07301712 496.39214134 C-132.01951818 500.66364759 -132.01674882 504.93207035 -132.0543895 509.203718 C-132.05904143 510.74898186 -132.04504528 512.29443734 -132.01056234 513.83932341 C-131.91453103 518.40715419 -131.97943684 522.61722551 -133.38427734 527.01611328 C-136.67083607 530.31706764 -140.1841893 532.09703892 -144.38427734 534.01611328 C-145.73396932 534.89936857 -147.06799443 535.80821682 -148.36865234 536.76220703 C-149.28771362 537.41648682 -149.28771362 537.41648682 -150.2253418 538.08398438 C-150.85529053 538.53596191 -151.48523926 538.98793945 -152.13427734 539.45361328 C-153.60118021 540.49734849 -155.06866061 541.54027233 -156.53662109 542.58251953 C-157.31376465 543.13439941 -158.0909082 543.6862793 -158.89160156 544.25488281 C-163.47495196 547.49330492 -168.08708015 550.69036136 -172.69677734 553.89111328 C-179.93527212 558.91956714 -187.16681696 563.95751158 -194.38427734 569.01611328 C-201.89572857 574.27962309 -209.41797127 579.52745621 -216.94677734 584.76611328 C-217.94128906 585.45833984 -218.93580078 586.15056641 -219.96044922 586.86376953 C-220.88535156 587.50701172 -221.81025391 588.15025391 -222.76318359 588.81298828 C-223.58375244 589.3837207 -224.40432129 589.95445312 -225.24975586 590.54248047 C-239.30885447 600.24861329 -259.30015407 594.01611328 -276.38427734 594.01611328 C-276.38427734 438.91611328 -276.38427734 283.81611328 -276.38427734 124.01611328 C-245.16952126 109.23017619 -213.90904675 94.56850197 -182.56933594 80.0546875 C-168.67737457 73.62032249 -154.80011046 67.15509198 -140.93066406 60.67236328 C-137.3343294 58.99278636 -133.73650748 57.31642227 -130.13818359 55.64111328 C-114.06633022 48.15635213 -98.02348852 40.6116041 -81.99621582 33.03184509 C-79.17854125 31.69943649 -76.36051176 30.36777965 -73.54241943 29.03625488 C-72.06048745 28.33575399 -70.57876862 27.63480203 -69.097229 26.93347168 C-66.81456264 25.85306525 -64.53112948 24.77429383 -62.24755859 23.69580078 C-61.56171188 23.3707254 -60.87586517 23.04565002 -60.16923523 22.71072388 C-55.9441413 20.71756954 -51.68279532 18.84534025 -47.38427734 17.01611328 C-45.70971287 16.19876633 -44.04212712 15.36685198 -42.38427734 14.51611328 C-38.43994216 12.52318603 -34.4585834 10.73161057 -30.38427734 9.01611328 C-23.46530413 5.96427319 -16.74663727 2.68608381 -10.11083984 -0.94482422 C-6.26239281 -2.41142438 -3.74123573 -1.54384395 0 0 Z " fill="#201E1A" transform="translate(632.38427734375,312.98388671875)"/>
<path d="M0 0 C0 137.28 0 274.56 0 416 C-3.16959346 414.09824393 -6.04298338 412.3145024 -8.9765625 410.13671875 C-9.71970703 409.58693359 -10.46285156 409.03714844 -11.22851562 408.47070312 C-12.01935547 407.88224609 -12.81019531 407.29378906 -13.625 406.6875 C-15.33589374 405.42051382 -17.04683249 404.15358842 -18.7578125 402.88671875 C-19.62954102 402.24009277 -20.50126953 401.5934668 -21.39941406 400.92724609 C-25.42654851 397.94281131 -29.4634119 394.97162845 -33.5 392 C-38.26391409 388.49124597 -43.02671822 384.9810218 -47.78515625 381.46484375 C-48.58566406 380.87380859 -49.38617187 380.28277344 -50.2109375 379.67382812 C-51.68415465 378.58604569 -53.15688826 377.49760774 -54.62890625 376.40820312 C-55.33015625 375.89064453 -56.03140625 375.37308594 -56.75390625 374.83984375 C-57.47379101 374.27496561 -58.19367577 373.71008747 -58.93537521 373.12809181 C-61.41882329 371.40357221 -63.68173055 370.13920824 -66.37239456 368.81677818 C-72.54654396 365.51297833 -78.54776493 361.97928214 -81.04710865 355.13080835 C-82.61840407 347.07927692 -82.40527913 338.88892077 -82.23577166 330.72360539 C-82.17816839 326.99192324 -82.22530596 323.26128439 -82.25878906 319.5295105 C-82.30781758 312.23569301 -82.26121762 304.94553286 -82.18116137 297.6521116 C-82.09128616 289.15324992 -82.09532814 280.6551901 -82.10246351 272.15595071 C-82.11183004 256.99203912 -82.03375124 241.82983553 -81.90722656 226.66650391 C-81.78457685 211.96104341 -81.72804226 197.25724169 -81.74316406 182.55126953 C-81.76213235 163.95950144 -81.72411394 145.36873182 -81.6378396 126.77715547 C-81.61200495 120.85563286 -81.60639093 114.93428612 -81.60747528 109.01271439 C-81.60762566 101.79885267 -81.5703404 94.58627038 -81.48625132 87.37288196 C-81.44409771 83.69354834 -81.41760245 80.01593544 -81.43430328 76.33635712 C-81.45177302 72.34671656 -81.39166434 68.360395 -81.32366943 64.37124634 C-81.34051969 63.20987361 -81.35736995 62.04850087 -81.37473083 60.85193503 C-81.15252219 53.17171009 -81.15252219 53.17171009 -77.79057074 49.7537868 C-75.26288733 47.96456316 -72.73265107 46.45118806 -70 45 C-69.01765381 44.3409668 -68.03530762 43.68193359 -67.02319336 43.00292969 C-66.22018799 42.48118164 -65.41718262 41.95943359 -64.58984375 41.421875 C-63.67251465 40.8247168 -62.75518555 40.22755859 -61.81005859 39.61230469 C-60.86211426 38.99774414 -59.91416992 38.38318359 -58.9375 37.75 C-57.92510254 37.09161133 -56.91270508 36.43322266 -55.86962891 35.75488281 C-49.57123323 31.66097548 -43.26450213 27.57997847 -36.95092773 23.50952148 C-32.13126043 20.39597169 -27.33285561 17.25082037 -22.5390625 14.09765625 C-21.20329064 13.21972218 -19.86751588 12.34179252 -18.53173828 11.46386719 C-15.86435555 9.7105617 -13.19903052 7.95417967 -10.53466797 6.19628906 C-9.30443166 5.38726382 -8.0741287 4.57833993 -6.84375 3.76953125 C-5.19149414 2.68055542 -5.19149414 2.68055542 -3.50585938 1.56958008 C-1 0 -1 0 0 0 Z " fill="#D4A94F" transform="translate(755,455)"/>
<path d="M0 0 C1.76974434 -0.03022751 1.76974434 -0.03022751 3.57524109 -0.06106567 C6.79703556 -0.10815588 10.01743426 -0.12812217 13.23953104 -0.13196039 C15.25876437 -0.1362418 17.27775859 -0.14908197 19.29693222 -0.1649437 C26.36005695 -0.22038544 33.42250475 -0.24496497 40.48583984 -0.24023438 C47.03927929 -0.23663721 53.58974317 -0.29980183 60.14243042 -0.39469635 C65.79212449 -0.47355658 71.44085474 -0.505321 77.0910939 -0.50150192 C80.45602592 -0.49998234 83.81622576 -0.52209716 87.18097305 -0.58057022 C110.31893629 -0.94493813 110.31893629 -0.94493813 117.37261772 5.02638435 C119.83324601 7.49372472 121.94399781 10.14913837 124.12060547 12.87158203 C126.00992431 14.59083154 127.97055637 16.1189982 129.99560547 17.68408203 C133.67035536 20.633413 136.99693811 23.69006429 140.26513672 27.07470703 C143.37297819 30.08440614 146.79484085 32.70872349 150.16357422 35.41845703 C153.24709062 37.97651291 156.19028025 40.64186008 159.12060547 43.37158203 C162.85369677 46.84595612 166.64433584 50.17228463 170.62060547 53.37158203 C174.59689973 56.57089925 178.38728845 59.89743148 182.12060547 63.37158203 C186.7266187 67.65743473 191.48889323 71.66985951 196.39404297 75.61376953 C200.23455357 78.79402043 203.86518033 82.1879601 207.52685547 85.57080078 C210.4649238 88.17700899 213.52619675 90.48786139 216.75732422 92.71533203 C217.43214844 93.28767578 217.43214844 93.28767578 218.12060547 93.87158203 C218.12060547 94.53158203 218.12060547 95.19158203 218.12060547 95.87158203 C108.23060547 95.87158203 -1.65939453 95.87158203 -114.87939453 95.87158203 C-108.15424833 88.02557813 -108.15424833 88.02557813 -104.25439453 84.62158203 C-100.42634488 81.24186252 -96.63539873 77.83071166 -92.87939453 74.37158203 C-89.230538 71.01820293 -85.56769343 67.68159386 -81.87939453 64.37158203 C-75.03395774 58.22488201 -68.25712929 52.00299387 -61.50830078 45.75048828 C-51.91835579 36.86834952 -51.91835579 36.86834952 -48.00439453 33.49658203 C-44.07437109 30.09944312 -40.29460328 26.54774337 -36.50439453 22.99658203 C-30.6917852 17.55129632 -24.85926061 12.13386418 -18.87939453 6.87158203 C-18.43637056 6.38210146 -17.9933466 5.89262089 -17.53689766 5.38830757 C-12.23530026 -0.01389655 -7.29883014 -0.01796783 0 0 Z " fill="#B25734" transform="translate(555.87939453125,820.12841796875)"/>
<path d="M0 0 C0.33 0 0.66 0 1 0 C1.33 42.57 1.66 85.14 2 129 C-28.36 129 -58.72 129 -90 129 C-90 128.34 -90 127.68 -90 127 C-60.3 127 -30.6 127 0 127 C0 85.09 0 43.18 0 0 Z " fill="#2A2821" transform="translate(896,779)"/>
<path d="M0 0 C-0.33 0.99 -0.66 1.98 -1 3 C-15.85 2.67 -30.7 2.34 -46 2 C-46 1.67 -46 1.34 -46 1 C-39.77035229 0.85726712 -33.54069659 0.71488649 -27.31103516 0.57275391 C-25.19059058 0.52433303 -23.07014786 0.4758307 -20.94970703 0.42724609 C-17.90658034 0.35753445 -14.86344715 0.28811314 -11.8203125 0.21875 C-10.86818878 0.19687622 -9.91606506 0.17500244 -8.93508911 0.15246582 C-8.05432709 0.13244507 -7.17356506 0.11242432 -6.26611328 0.09179688 C-5.48889923 0.07403198 -4.71168518 0.05626709 -3.91091919 0.03796387 C-2.60747524 0.01206859 -1.30370115 0 0 0 Z " fill="#2A2823" transform="translate(403,904)"/>
<path d="M0 0 C0.99 0.33 1.98 0.66 3 1 C0.03 3.97 -2.94 6.94 -6 10 C-6.33 9.01 -6.66 8.02 -7 7 C-4.69 4.69 -2.38 2.38 0 0 Z " fill="#B55E3C" transform="translate(528,835)"/>
<path d="M0 0 C0.66 0.33 1.32 0.66 2 1 C0.92807816 2.3218362 -0.15802695 3.63217927 -1.25 4.9375 C-1.85328125 5.66839844 -2.4565625 6.39929688 -3.078125 7.15234375 C-5.10741134 9.10326334 -6.254407 9.61731779 -9 10 C-8.06409496 8.8944811 -7.12620142 7.79064547 -6.1875 6.6875 C-5.66542969 6.07261719 -5.14335937 5.45773437 -4.60546875 4.82421875 C-3.12827531 3.14575321 -1.59960869 1.56117966 0 0 Z " fill="#B86340" transform="translate(470,888)"/>
<path d="M0 0 C3.34373475 0.55728913 6.03312999 1.35173889 9 3 C9 3.66 9 4.32 9 5 C5.65626525 4.44271087 2.96687001 3.64826111 0 2 C0 1.34 0 0.68 0 0 Z " fill="#DFDBCE" transform="translate(707,347)"/>
<path d="M0 0 C-2.57089417 2.11180592 -4.63060567 3.66306057 -8 4 C-8.66 3.34 -9.32 2.68 -10 2 C-3.375 -1.125 -3.375 -1.125 0 0 Z " fill="#2B2A25" transform="translate(464,389)"/>
<path d="M0 0 C0 0.66 0 1.32 0 2 C-0.66 2 -1.32 2 -2 2 C-2 2.66 -2 3.32 -2 4 C-3.98 4.33 -5.96 4.66 -8 5 C-8 4.34 -8 3.68 -8 3 C-2.25 0 -2.25 0 0 0 Z " fill="#3A372F" transform="translate(621,314)"/>
<path d="M0 0 C3.34373475 0.55728913 6.03312999 1.35173889 9 3 C9 3.66 9 4.32 9 5 C6.03 4.01 3.06 3.02 0 2 C0 1.34 0 0.68 0 0 Z " fill="#DBD6C9" transform="translate(636,314)"/>
<path d="M0 0 C0 0.99 0 1.98 0 3 C-2.70879335 4.35439668 -5.00933268 4.06501451 -8 4 C-2.7826087 0 -2.7826087 0 0 0 Z " fill="#36342D" transform="translate(544,350)"/>
<path d="M0 0 C0.66 0.66 1.32 1.32 2 2 C-0.31 3.65 -2.62 5.3 -5 7 C-5.66 6.67 -6.32 6.34 -7 6 C-4.69 4.02 -2.38 2.04 0 0 Z " fill="#BA6745" transform="translate(544,821)"/>
</svg>
